<svg width="30" height="34" viewBox="0 0 30 34" fill="none" xmlns="http://www.w3.org/2000/svg">
<path d="M27.919 25.3481L24.4971 20.6883L24.3752 12.4816C24.3792 12.4263 24.3792 12.3706 24.3752 12.3152C23.2971 5.80399 19.8846 2.08032 15.0002 2.08032C9.84396 2.08032 5.70021 6.24085 4.68771 12.2944C4.68264 12.3567 4.68264 12.4194 4.68771 12.4816L4.56584 20.8027L2.00646 25.4625C1.92418 25.6206 1.88086 25.8 1.88086 25.9825C1.88086 26.1651 1.92418 26.3445 2.00646 26.5026C2.08587 26.6637 2.20229 26.7986 2.3439 26.8936C2.4855 26.9886 2.64725 27.0403 2.81271 27.0435H11.2502C11.2502 28.1469 11.6453 29.2052 12.3486 29.9854C13.0518 30.7657 14.0056 31.204 15.0002 31.204C15.9948 31.204 16.9486 30.7657 17.6519 29.9854C18.3551 29.2052 18.7502 28.1469 18.7502 27.0435H27.1877C27.3644 27.0429 27.5374 26.987 27.6867 26.8821C27.836 26.7772 27.9555 26.6276 28.0315 26.4506C28.1084 26.2738 28.1387 26.0764 28.1188 25.8813C28.0989 25.6862 28.0296 25.5013 27.919 25.3481ZM15.0002 29.1237C14.5029 29.1237 14.026 28.9046 13.6744 28.5144C13.3228 28.1243 13.1252 27.5952 13.1252 27.0435H16.8752C16.8752 27.5952 16.6777 28.1243 16.326 28.5144C15.9744 28.9046 15.4975 29.1237 15.0002 29.1237ZM4.47209 24.9632L6.34709 21.5932C6.43134 21.4357 6.47662 21.2563 6.47834 21.0731L6.56271 12.5857C7.41584 7.54101 10.8002 4.16059 15.0002 4.16059C20.2783 4.16059 21.9658 9.36124 22.5002 12.5857L22.6315 21.0731C22.6327 21.3077 22.7054 21.535 22.8377 21.718L25.219 24.9632H4.47209Z" fill="#8A8A8A"/>
</svg>
