<?xml version="1.0" encoding="utf-8"?>
<!-- Generator: Adobe Illustrator 23.0.1, SVG Export Plug-In . SVG Version: 6.00 Build 0)  -->
<svg version="1.1" id="Capa_1" xmlns="http://www.w3.org/2000/svg" xmlns:xlink="http://www.w3.org/1999/xlink" x="0px" y="0px"
	 viewBox="0 0 283.46 283.46" style="enable-background:new 0 0 283.46 283.46;" xml:space="preserve">
<style type="text/css">
	.st0{fill:#A8CCBA;}
	.st1{fill:none;stroke:#FFFFFF;stroke-width:16.9576;stroke-linecap:round;stroke-linejoin:round;}
</style>
<path class="st0" d="M141.73,283.46L141.73,283.46C63.46,283.46,0,220.01,0,141.73v0C0,63.46,63.46,0,141.73,0h0
	c78.28,0,141.73,63.46,141.73,141.73v0C283.46,220.01,220.01,283.46,141.73,283.46z"/>
<path class="st1" d="M106.9,141.73h0.09 M141.73,141.73h0.09 M176.56,141.73h0.09 M220.1,141.73c0,38.47-35.08,69.66-78.36,69.66
	c-13.4,0-26.02-2.99-37.05-8.26l-41.31,8.26L75.51,179c-7.69-10.78-12.15-23.56-12.15-37.27c0-38.47,35.09-69.66,78.36-69.66
	C185.01,72.07,220.1,103.26,220.1,141.73z"/>
</svg>
