<?xml version="1.0" ?><svg id="Layer_13" style="enable-background:new 0 0 120 120;" version="1.1" viewBox="0 0 120 120" xml:space="preserve" xmlns="http://www.w3.org/2000/svg" xmlns:xlink="http://www.w3.org/1999/xlink"><style type="text/css">
	.st0{fill:#8A8A8A;}
	.st1{fill:#FFFFFF;}
</style><g><path class="st0" d="M98.5,17h-77c-6.8,0-12.4,5.5-12.4,12.4v47.2c0,6.8,5.5,12.4,12.4,12.4h27.7l7.5,12.9c0.8,1.4,2.9,1.4,3.7,0   L67.9,89h30.6c6.8,0,12.4-5.5,12.4-12.4V29.4C110.9,22.5,105.4,17,98.5,17z"/><g><circle class="st1" cx="60" cy="41.3" r="11.2"/><path class="st1" d="M60,55.5c-11.3,0-21.2,6.5-25.7,16.1v0.9c0,1.9,1.5,3.4,3.4,3.4h44.8c1.9,0,3.4-1.5,3.4-3.4v-0.9    C81.2,62.2,71.3,55.5,60,55.5z"/></g></g></svg>