<svg width="35" height="31" viewBox="0 0 35 31" fill="none" xmlns="http://www.w3.org/2000/svg">
<path d="M5.59981 14.9036C7.1462 14.9036 8.39979 13.5127 8.39979 11.797C8.39979 10.0814 7.1462 8.69052 5.59981 8.69052C4.05341 8.69052 2.7998 10.0814 2.7998 11.797C2.7998 13.5127 4.05341 14.9036 5.59981 14.9036Z" stroke="#8A8A8A" stroke-width="2" stroke-miterlimit="10"/>
<path d="M8.2996 27.1078H2.59961C1.69961 27.1078 1.09961 26.3312 1.09961 25.3326V22.2261C1.09961 19.7853 2.7996 17.8992 4.9996 17.8992H8.4996" stroke="#8A8A8A" stroke-width="2" stroke-miterlimit="10"/>
<path d="M17.6002 12.0189C20.0303 12.0189 22.0002 9.83336 22.0002 7.13727C22.0002 4.44119 20.0303 2.25558 17.6002 2.25558C15.1702 2.25558 13.2002 4.44119 13.2002 7.13727C13.2002 9.83336 15.1702 12.0189 17.6002 12.0189Z" stroke="#8A8A8A" stroke-width="2" stroke-miterlimit="10"/>
<path d="M24.1002 28.883H10.7002C9.3002 28.883 8.2002 27.6625 8.2002 26.1093V21.3385C8.2002 17.5663 11.1002 14.4598 14.6002 14.4598H20.3002C23.8002 14.4598 26.7002 17.5663 26.7002 21.3385V26.1093C26.6002 27.6625 25.5002 28.883 24.1002 28.883Z" stroke="#8A8A8A" stroke-width="2" stroke-miterlimit="10"/>
<path d="M29.0002 14.9036C30.5466 14.9036 31.8002 13.5127 31.8002 11.797C31.8002 10.0814 30.5466 8.69052 29.0002 8.69052C27.4538 8.69052 26.2002 10.0814 26.2002 11.797C26.2002 13.5127 27.4538 14.9036 29.0002 14.9036Z" stroke="#8A8A8A" stroke-width="2" stroke-miterlimit="10"/>
<path d="M26.2996 27.1078H31.9996C32.8996 27.1078 33.4996 26.3312 33.4996 25.3326V22.2261C33.4996 19.7853 31.7996 17.8992 29.5996 17.8992H26.0996" stroke="#8A8A8A" stroke-width="2" stroke-miterlimit="10"/>
</svg>
