<svg width="30" height="31" viewBox="0 0 30 31" fill="none" xmlns="http://www.w3.org/2000/svg">
<path d="M1.03629 18.0894H3.4799V28.9338C3.4799 29.5728 3.95116 30.0957 4.52715 30.0957H11.6834C12.2594 30.0957 12.7307 29.5728 12.7307 28.9338V20.9941H17.0942V28.9338C17.0942 29.5728 17.5655 30.0957 18.1415 30.0957H24.9486C25.5246 30.0957 25.9959 29.5728 25.9959 28.9338V18.0894H28.9631C29.382 18.0894 29.766 17.7989 29.9231 17.3729C30.0801 16.9469 29.9929 16.4434 29.6962 16.1141L16.0469 0.75771C15.6455 0.312292 14.9823 0.29295 14.5808 0.738368L0.320703 16.0948C0.00652726 16.424 -0.0807644 16.9275 0.0763236 17.3729C0.233412 17.8182 0.617384 18.0894 1.03629 18.0894ZM15.2789 3.21704L26.4496 15.7656H24.9485C24.3725 15.7656 23.9013 16.2884 23.9013 16.9275V27.7719H19.1886V19.8322C19.1886 19.1932 18.7174 18.6703 18.1414 18.6703H11.6834C11.1074 18.6703 10.6362 19.1932 10.6362 19.8322V27.7719H5.57441V16.9275C5.57441 16.2884 5.10314 15.7656 4.52715 15.7656H3.61955L15.2789 3.21704Z" fill="#3C3C3C"/>
</svg>
