<?xml version="1.0" ?><svg viewBox="0 0 32 32" xmlns="http://www.w3.org/2000/svg"><defs><style>.cls-1{fill:#f1ecf0;}.cls-2{fill:#fce87b;}.cls-2,.cls-5,.cls-6{fill-rule:evenodd;}.cls-3,.cls-6{fill:#dfdedb;}.cls-4{fill:#fb4854;}.cls-5{fill:#fdde2e;}.cls-7{fill:#af66d9;}</style></defs><g data-name="Email Invitation" id="Email_Invitation"><path class="cls-1" d="M23.13,19.63V7.46A1.62,1.62,0,0,0,21.5,5.83H4V28.19a1.64,1.64,0,0,0,.48,1.16,1.67,1.67,0,0,0,1.16.48h10.3Z"/><path class="cls-2" d="M28,20.41a.79.79,0,0,0-.78-.78H14.78a.79.79,0,0,0-.78.78v8.65a.78.78,0,0,0,.77.77H27.23a.78.78,0,0,0,.77-.77Z"/><path class="cls-3" d="M4,5.83,19.73,2.21a1.29,1.29,0,0,1,1.12.26,1.31,1.31,0,0,1,.48,1.06c0,1.09-.07,2.3-.07,2.3Z"/><path class="cls-4" d="M6.23,21.85a.68.68,0,0,0,.67.67h.55a.51.51,0,0,1,.36.15A.51.51,0,0,1,8,23v4.14a.48.48,0,0,0,.47.47h1.9a.48.48,0,0,0,.47-.47V19.81a.45.45,0,0,0-.45-.45H7.91a.45.45,0,0,0-.44.35,1.27,1.27,0,0,1-.88.95.42.42,0,0,0-.33.41A6.52,6.52,0,0,0,6.23,21.85Z"/><path class="cls-5" d="M14.27,19.82a.78.78,0,0,1,.51-.19H27.22a.78.78,0,0,1,.51.19l-6.1,4.45a1.08,1.08,0,0,1-1.26,0Z"/><path class="cls-3" d="M11.12,12.67a2.68,2.68,0,0,0,2.11,1A2.72,2.72,0,0,0,15.94,11V9a.62.62,0,0,0-.63-.63h-3.5a.62.62,0,0,0-.62.61C11.17,10.13,11.12,12.67,11.12,12.67Z"/><path class="cls-5" d="M26.73,29.83l-3.16-2.3a.75.75,0,1,1,.88-1.22L28,28.9v.16a.79.79,0,0,1-.77.77ZM14,28.9l3.55-2.59a.75.75,0,0,1,.88,1.22l-3.16,2.3h-.5a.78.78,0,0,1-.77-.77Z"/><path class="cls-6" d="M12.48,13.71v2.94a.75.75,0,0,0,1.5,0V13.71a.75.75,0,0,0-1.5,0Z"/><path class="cls-6" d="M12.14,17.4h2.19a.75.75,0,0,0,0-1.5H12.14a.75.75,0,1,0,0,1.5Z"/><path class="cls-6" d="M8.26,13.71v2.94a.75.75,0,0,0,1.5,0V13.71a.75.75,0,0,0-1.5,0Z"/><path class="cls-6" d="M7.91,17.4H10.1a.75.75,0,0,0,0-1.5H7.91a.75.75,0,0,0,0,1.5Z"/><path class="cls-3" d="M21.12,17.13a.75.75,0,0,0-1.5,0,.75.75,0,0,0,1.5,0"/><path class="cls-3" d="M21.12,14.35a.75.75,0,1,0-1.5,0,.75.75,0,0,0,1.5,0"/><path class="cls-3" d="M21.12,11.57a.75.75,0,0,0-1.5,0,.75.75,0,0,0,1.5,0"/><path class="cls-3" d="M21.12,8.78a.75.75,0,1,0-1.5,0h0a.75.75,0,0,0,1.5,0Z"/><path class="cls-7" d="M6.93,8.32A.63.63,0,0,0,6.3,9v2a2.71,2.71,0,1,0,5.41,0V9a.63.63,0,0,0-.62-.63Z"/><path class="cls-7" d="M11.71,10.53h4.23V11a2.69,2.69,0,0,1-4.81,1.7C11.5,12.22,10,11.45,10,10.8Z"/></g></svg>