<svg width="79" height="26" viewBox="0 0 79 26" fill="none" xmlns="http://www.w3.org/2000/svg">
<path d="M33.92 6.32L32.24 9.32H30.56L28.88 6.32V11H26.72V2.6H29L31.4 7.04L33.8 2.6H36.08V11H33.92V6.32ZM44.1847 11H37.5247V2.6H44.1847V4.28H39.6847V5.9H43.2247V7.58H39.6847V9.32H44.1847V11ZM52.4619 11H50.1819L47.3019 5.96V11H45.1419V2.6H47.4219L50.3019 7.64V2.6H52.4619V11ZM57.9875 11H55.8275V4.28H53.3075V2.6H60.5075V4.28H57.9875V11ZM66.7489 4.88C66.7489 4.4 66.5089 4.16 66.0289 4.16H63.9889C63.5089 4.16 63.2689 4.4 63.2689 4.88V8.72C63.2689 9.2 63.5089 9.44 63.9889 9.44H66.0289C66.5089 9.44 66.7489 9.2 66.7489 8.72V4.88ZM68.9089 8.72C68.9089 9.56 68.7169 10.172 68.3329 10.556C67.9569 10.932 67.3489 11.12 66.5089 11.12H63.5089C62.6689 11.12 62.0569 10.932 61.6729 10.556C61.2969 10.172 61.1089 9.56 61.1089 8.72V4.88C61.1089 4.04 61.2969 3.432 61.6729 3.056C62.0569 2.672 62.6689 2.48 63.5089 2.48H66.5089C67.3489 2.48 67.9569 2.672 68.3329 3.056C68.7169 3.432 68.9089 4.04 68.9089 4.88V8.72ZM70.1145 2.6H75.1545C75.9945 2.6 76.6025 2.792 76.9785 3.176C77.3625 3.552 77.5545 4.16 77.5545 5V6.08C77.5545 6.744 77.4425 7.26 77.2185 7.628C77.0025 7.996 76.6545 8.24 76.1745 8.36L77.6745 11H75.3345L73.9545 8.48H72.2745V11H70.1145V2.6ZM75.3945 5C75.3945 4.52 75.1545 4.28 74.6745 4.28H72.2745V6.8H74.6745C75.1545 6.8 75.3945 6.56 75.3945 6.08V5Z" fill="white"/>
<path d="M37.54 17.59L34.88 22.34H32.22L29.56 17.59V25H26.14V11.7H29.75L33.55 18.73L37.35 11.7H40.96V25H37.54V17.59ZM45.6224 25H41.9174L46.9524 11.7H50.7524L55.7874 25H52.0824L51.2274 22.625H46.4774L45.6224 25ZM47.3324 20.155H50.3724L48.8524 15.69L47.3324 20.155ZM61.8607 25H58.4407V14.36H54.4507V11.7H65.8507V14.36H61.8607V25ZM77.728 25H67.183V11.7H77.728V14.36H70.603V16.925H76.208V19.585H70.603V22.34H77.728V25Z" fill="white"/>
<path d="M16.3516 10.0859H14.9141V15.1172H13.1172V23.3828H10.9609V15.1172H9.16406V10.0859H7.72656V16.5547H9.52344V24.8203H14.5547V16.5547H16.3516V10.0859Z" fill="white"/>
<path d="M9.52344 4.69531C9.52344 6.07891 10.6555 7.21094 12.0391 7.21094C13.4227 7.21094 14.5547 6.07891 14.5547 4.69531C14.5547 3.31172 13.4227 2.17969 12.0391 2.17969C10.6555 2.17969 9.52344 3.31172 9.52344 4.69531ZM13.1172 4.69531C13.1172 5.28828 12.632 5.77344 12.0391 5.77344C11.4461 5.77344 10.9609 5.28828 10.9609 4.69531C10.9609 4.10234 11.4461 3.61719 12.0391 3.61719C12.632 3.61719 13.1172 4.10234 13.1172 4.69531Z" fill="white"/>
<path d="M3.41406 6.49219C3.41406 7.87578 4.54609 9.00781 5.92969 9.00781C7.31328 9.00781 8.44531 7.87578 8.44531 6.49219C8.44531 5.10859 7.31328 3.97656 5.92969 3.97656C4.54609 3.97656 3.41406 5.10859 3.41406 6.49219ZM7.00781 6.49219C7.00781 7.08516 6.52266 7.57031 5.92969 7.57031C5.33672 7.57031 4.85156 7.08516 4.85156 6.49219C4.85156 5.89922 5.33672 5.41406 5.92969 5.41406C6.52266 5.41406 7.00781 5.89922 7.00781 6.49219Z" fill="white"/>
<path d="M20.3047 16.9141H18.5078V23.3828H15.6328V24.8203H19.9453V18.3516H21.7422V11.1641H20.3047V16.9141Z" fill="white"/>
<path d="M15.6328 6.49219C15.6328 7.87578 16.7648 9.00781 18.1484 9.00781C19.532 9.00781 20.6641 7.87578 20.6641 6.49219C20.6641 5.10859 19.532 3.97656 18.1484 3.97656C16.7648 3.97656 15.6328 5.10859 15.6328 6.49219ZM18.1484 5.41406C18.7414 5.41406 19.2266 5.89922 19.2266 6.49219C19.2266 7.08516 18.7414 7.57031 18.1484 7.57031C17.5555 7.57031 17.0703 7.08516 17.0703 6.49219C17.0703 5.89922 17.5555 5.41406 18.1484 5.41406Z" fill="white"/>
<path d="M5.57031 16.9141H3.77344V11.1641H2.33594V18.3516H4.13281V24.8203H8.44531V23.3828H5.57031V16.9141Z" fill="#ffffff"/>
</svg>
