<svg width="35" height="40" viewBox="0 0 35 40" fill="none" xmlns="http://www.w3.org/2000/svg">
<path d="M17.4131 19.9705H31.6318" stroke="#3C3C3C" stroke-width="2" stroke-linecap="round" stroke-linejoin="round"/>
<path d="M26.1738 31.204V34.9484H8.67383V4.99265H26.1738V8.73713H28.3613V3.7445C28.3613 3.41346 28.2461 3.09599 28.041 2.86191C27.8359 2.62784 27.5577 2.49634 27.2676 2.49634H7.58008C7.29 2.49634 7.0118 2.62784 6.80668 2.86191C6.60156 3.09599 6.48633 3.41346 6.48633 3.7445V36.1966C6.48633 36.5276 6.60156 36.8451 6.80668 37.0792C7.0118 37.3133 7.29 37.4448 7.58008 37.4448H27.2676C27.5577 37.4448 27.8359 37.3133 28.041 37.0792C28.2461 36.8451 28.3613 36.5276 28.3613 36.1966V31.204H26.1738Z" fill="#3C3C3C"/>
<path d="M31.6318 19.9705L27.2568 24.9631" stroke="#3C3C3C" stroke-width="2" stroke-linecap="round" stroke-linejoin="round"/>
<path d="M31.6318 19.9707L27.2568 14.978" stroke="#3C3C3C" stroke-width="2" stroke-linecap="round" stroke-linejoin="round"/>
<path d="M27.2568 10.0976V7.60132" stroke="#3C3C3C" stroke-width="2" stroke-linecap="round" stroke-linejoin="round"/>
<path d="M27.2568 32.4521V29.9558" stroke="#3C3C3C" stroke-width="2" stroke-linecap="round" stroke-linejoin="round"/>
</svg>
