<svg xmlns="http://www.w3.org/2000/svg" viewBox="0 0 64 64"><defs><style>.cls-1,.cls-7{fill:none;}.cls-1,.cls-2{stroke:#ffb74d;}.cls-1,.cls-2,.cls-3,.cls-4,.cls-5,.cls-6,.cls-7{stroke-linecap:round;stroke-width:2px;}.cls-1,.cls-2,.cls-3,.cls-4,.cls-5,.cls-7{stroke-linejoin:round;}.cls-2{fill:#ffb74d;}.cls-3{fill:#fff;}.cls-3,.cls-4{stroke:#cfd8dc;}.cls-4{fill:#cfd8dc;}.cls-5{fill:#f2ec25;stroke:#f2ec25;}.cls-6{fill:#5b3b63;stroke:#5b3b63;stroke-miterlimit:10;opacity:0.1;}.cls-7{stroke:#54596e;}.cls-8{fill:#4f4f4f;}.cls-9{fill:#ff4931;}</style></defs><title>folder-file</title><g id="folder-file"><line class="cls-1" x1="2" y1="54" x2="18" y2="54"/><path class="cls-2" d="M30,14h0a2,2,0,0,0-2-2H8a2,2,0,0,0-2,2V52a2,2,0,0,0,2,2H55a2,2,0,0,0,2-2V18a2,2,0,0,0-2-2H32A2,2,0,0,1,30,14Z"/><polygon class="cls-3" points="53 10 24.34 10 17 17.02 17 23 53 23 53 10"/><polygon class="cls-4" points="17 17 24 17 24 10 17 17"/><path class="cls-5" d="M61,23H14a2,2,0,0,0-2,2L6,52a2,2,0,0,0,2,2H55a2,2,0,0,0,2-2l6-27A2,2,0,0,0,61,23Z"/><path class="cls-6" d="M18.74,23H14a2,2,0,0,0-2,2L6,52a2,2,0,0,0,2,2h5.26Z"/><path class="cls-7" d="M31.86,41.07A7,7,0,0,0,37,43a7,7,0,0,0,5.1-1.9"/><circle class="cls-8" cx="45" cy="34" r="2"/><circle class="cls-8" cx="30" cy="34" r="2"/><circle class="cls-9" cx="26" cy="38" r="2"/><circle class="cls-9" cx="49" cy="38" r="2"/></g></svg>